{
  "title": "Furious Seven (2015) 1080p Blu-ray x264 DTS-HD MA 7.1-DDR",
  "uid": 12456530,
  "size": 14147563667,
  "categoryP": "video",
  "categoryS": "hd___movies",
  "magnet": "?xt=urn:btih:8fa20d874e100c14d49fb808026eff377374f27f&amp;dn=Furious+Seven+%282015%29+1080p+Blu-ray+x264+DTS-HD+MA+7.1-DDR&amp;tr=udp%3A%2F%2Ftracker.openbittorrent.com%3A80&amp;tr=udp%3A%2F%2Fopen.demonii.com%3A1337&amp;tr=udp%3A%2F%2Ftracker.coppersurfer.tk%3A6969&amp;tr=udp%3A%2F%2Fexodus.desync.com%3A6969",
  "seeders": 42,
  "leechers": 123,
  "uploader": "SaM",
  "files": 3,
  "time": 1442755599,
  "description": "1080p Blu-ray Rip x264\n\nDual Audio\nEnglish Untouched DTS-HDMA 7.1\nHindi Untouched 5.1 AC3\n\nEnglish Director's Commentary Subtitle\n&amp;\nFrench Subtitle\n &lt;a href=&quot;\nhttp://extraimago.com/image/l4l&quot; rel=&quot;nofollow&quot; target=&quot;_NEW&quot;&gt;\nhttp://extraimago.com/image/l4l&lt;/a&gt; &lt;a href=&quot;\nhttp://extraimago.com/image/l4I&quot; rel=&quot;nofollow&quot; target=&quot;_NEW&quot;&gt;\nhttp://extraimago.com/image/l4I&lt;/a&gt; &lt;a href=&quot;\nhttp://extraimago.com/image/l4d&quot; rel=&quot;nofollow&quot; target=&quot;_NEW&quot;&gt;\nhttp://extraimago.com/image/l4d&lt;/a&gt; &lt;a href=&quot;\nhttp://extraimago.com/image/l4h&quot; rel=&quot;nofollow&quot; target=&quot;_NEW&quot;&gt;\nhttp://extraimago.com/image/l4h&lt;/a&gt; &lt;a href=&quot;\nhttp://extraimago.com/image/l4b&quot; rel=&quot;nofollow&quot; target=&quot;_NEW&quot;&gt;\nhttp://extraimago.com/image/l4b&lt;/a&gt; &lt;a href=&quot;\nhttp://extraimago.com/image/l43&quot; rel=&quot;nofollow&quot; target=&quot;_NEW&quot;&gt;\nhttp://extraimago.com/image/l43&lt;/a&gt; &lt;a href=&quot;\nhttp://extraimago.com/image/l49&quot; rel=&quot;nofollow&quot; target=&quot;_NEW&quot;&gt;\nhttp://extraimago.com/image/l49&lt;/a&gt; &lt;a href=&quot;\nhttp://extraimago.com/image/l4M&quot; rel=&quot;nofollow&quot; target=&quot;_NEW&quot;&gt;\nhttp://extraimago.com/image/l4M&lt;/a&gt; &lt;a href=&quot;\nhttp://extraimago.com/image/l4U&quot; rel=&quot;nofollow&quot; target=&quot;_NEW&quot;&gt;\nhttp://extraimago.com/image/l4U&lt;/a&gt; &lt;a href=&quot;\nhttp://extraimago.com/image/l4z&quot; rel=&quot;nofollow&quot; target=&quot;_NEW&quot;&gt;\nhttp://extraimago.com/image/l4z&lt;/a&gt; &lt;a href=&quot;\nhttp://extraimago.com/image/l40&quot; rel=&quot;nofollow&quot; target=&quot;_NEW&quot;&gt;\nhttp://extraimago.com/image/l40&lt;/a&gt; &lt;a href=&quot;\nhttp://extraimago.com/image/l4J&quot; rel=&quot;nofollow&quot; target=&quot;_NEW&quot;&gt;\nhttp://extraimago.com/image/l4J&lt;/a&gt; &lt;a href=&quot;\nhttp://extraimago.com/image/l4K&quot; rel=&quot;nofollow&quot; target=&quot;_NEW&quot;&gt;\nhttp://extraimago.com/image/l4K&lt;/a&gt; &lt;a href=&quot;\nhttp://extraimago.com/image/l4Z&quot; rel=&quot;nofollow&quot; target=&quot;_NEW&quot;&gt;\nhttp://extraimago.com/image/l4Z&lt;/a&gt;\n\nSpecs:\nSource: BD50 @ nGp\n\nFormat : Matroska\nFile size : 13.1 GiB\nDuration : 2h 19mn\nOverall bit rate mode : Variable\nOverall bit rate : 13.4 Mbps\n\nVideo\nFormat : AVC\nFormat profile : &lt;a class=&quot;__cf_email__&quot; href=&quot;/cdn-cgi/l/email-protection&quot; data-cfemail=&quot;d29abbb5ba929ee6fce3&quot;&gt;[email&amp;#160;protected]&lt;/a&gt;&lt;script data-cfhash='f9e31' type=&quot;text/javascript&quot;&gt;\n/* &lt;![CDATA[ */!function(){try{var t=&quot;currentScript&quot;in document?document.currentScript:function(){for(var t=document.getElementsByTagName(&quot;script&quot;),e=t.length;e--;)if(t[e].getAttribute(&quot;data-cfhash&quot;))return t[e]}();if(t&amp;&amp;t.previousSibling){var e,r,n,i,c=t.previousSibling,a=c.getAttribute(&quot;data-cfemail&quot;);if(a){for(e=&quot;&quot;,r=parseInt(a.substr(0,2),16),n=2;a.length-n;n+=2)i=parseInt(a.substr(n,2),16)^r,e+=String.fromCharCode(i);e=document.createTextNode(e),c.parentNode.replaceChild(e,c)}t.parentNode.removeChild(t);}}catch(u){}}()/* ]]&gt; */&lt;/script&gt;\nNominal bit rate : 8 000 Kbps\nWidth : 1 920 pixels\nHeight : 800 pixels\nDisplay aspect ratio : 2.40:1\nFrame rate mode : Constant\nFrame rate : 23.976 fps\nColor space : YUV\nChroma subsampling : 4:2:0\nBit depth : 8 bits\nScan type : Progressive\n\nAudio #1\nFormat : DTS\nFormat/Info : Digital Theater Systems\nFormat profile : MA / Core\nBit rate mode : Variable\nBit rate : 4.2 Mbps / 1 509 Kbps\nChannel(s) : 8 channels / 6 channels\nChannel positions : Front: L C R, Side: L R, Back: L R, LFE / Front: L C R, Side: L R, LFE\nSampling rate : 48.0 KHz\nBit depth : 24 bits\nCompression mode : Lossless / Lossy\nStream size : 4.8 GiB\nLanguage : English\nDefault : Yes\nForced : No\n\nAudio #2\nFormat : AC-3\nBit rate mode : Constant\nBit rate : 448 Kbps\nChannel(s) : 6 channels\nChannel positions : Front: L C R, Side: L R, LFE\nSampling rate : 48.0 KHz\nBit depth : 16 bits\nCompression mode : Lossy\nStream size : 448 MiB (5%)\nLanguage : Hindi\nDefault : No\nForced : No\n\nChapters : YES\n\nSAMPLE Included\n\nA DDR Exclusive Encode",
  "parsed": {
    "xt": "urn:btih:8fa20d874e100c14d49fb808026eff377374f27f",
    "dn": "Furious Seven (2015) 1080p Blu-ray x264 DTS-HD MA 7.1-DDR",
    "tr": [
      "udp://exodus.desync.com:6969",
      "udp://open.demonii.com:1337",
      "udp://tracker.coppersurfer.tk:6969",
      "udp://tracker.openbittorrent.com:80"
    ],
    "infoHash": "8fa20d874e100c14d49fb808026eff377374f27f",
    "infoHashBuffer": {
      "type": "Buffer",
      "data": [
        143,
        162,
        13,
        135,
        78,
        16,
        12,
        20,
        212,
        159,
        184,
        8,
        2,
        110,
        255,
        55,
        115,
        116,
        242,
        127
      ]
    },
    "name": "Furious Seven (2015) 1080p Blu-ray x264 DTS-HD MA 7.1-DDR",
    "announce": [
      "udp://exodus.desync.com:6969",
      "udp://open.demonii.com:1337",
      "udp://tracker.coppersurfer.tk:6969",
      "udp://tracker.openbittorrent.com:80"
    ],
    "urlList": []
  },
  "previous": 10,
  "peers": 13,
  "last_updated": "2016-12-27T06:52:55.297Z"
}